<svg height="1024" width="1024" xmlns="http://www.w3.org/2000/svg"><g fill-rule="evenodd"><path d="M371.8 189.1h515.1l55.7 55.5v319.6H371.8Z" fill="#efefef"/><path d="m887.1 189.1 55.5 55.5h-55.5Z" fill="#ccc"/></g><path d="m137 179.4 1.6.2 1.5.6 1.2 1 1 1.2.6 1.4.2 1.7-3.2 49.3h167l-3.2-48.9.3-2.1.6-1.4 2.2-2.2 1.4-.6 1.6-.2 2.1.2 1.5.6 2.3 2.2.7 1.4.4 1.7 42 655.9h-13.1l-7.1-110.9H108.2l-7.1 110.9h-13l42-655.9.3-1.7.7-1.4 1-1.3 1.3-.9 1.5-.6 2.1-.2Zm192.8 414.1H117l-8.2 127.2H338l-8.2-127.2Zm-11.7-182.6H128.7l-11.1 172.8h211.6l-11.1-172.8Zm-10.6-166.3H139.3l-10 156.5h188.2l-10-156.5Z" fill="#999" fill-rule="evenodd"/><path d="M542.9 367.8h34.4v57.1h-34.4v51.2H481v-51.2H358.8v-37.6l98.1-191.6h86v172.1ZM481 267.4l-50 100.4h50V267.4Zm202.5 248.1-8.8-2.2-8.2-2.6-7.6-3-7-3.3-6.5-3.8-6.1-4.1-5.5-4.5-5.2-4.9-4.8-5.3-4.3-5.7-4-6.2-3.6-6.7-3.1-7.1-2.7-7.5-2.3-8-1.7-8.4-1.2-9-.8-9.6-.1-10.2.4-10.8 1.1-11.5 1.8-12.3 2.4-13.1 3.1-12.9 3.4-11.9 3.7-11 4-10.1 4.3-9.2 4.5-8.5 4.8-7.7 5-7.1 5.3-6.4 5.6-5.8 5.8-5.2 5.9-4.7 6.2-4 6.3-3.5 6.5-2.9 6.7-2.4 7-1.9 7.2-1.3 7.4-.8 7.8-.2 8.2.4 8.5.9 8.9 1.6 8.9 2.2 8.2 2.6 7.6 3 7.1 3.4 6.5 3.8 6.1 4.1 5.6 4.5 5.1 4.9 4.8 5.4 4.3 5.7 4 6.2 3.5 6.6 3.1 7.2 2.7 7.5 2.2 8 1.7 8.5 1.2 9 .7 9.6.2 10.2-.5 10.8-1.1 11.5-1.7 12.3-2.5 13.1-3.1 12.9-3.3 11.9-3.7 11-4 10.1-4.3 9.2-4.5 8.5-4.8 7.7-5 7-5.3 6.4-5.5 5.8-5.7 5.2-6 4.6-6.1 4-6.3 3.5-6.4 2.9-6.7 2.4-7 1.8-7.2 1.3-7.5.8-7.8.2-8.2-.3-8.6-1-9-1.6Zm11.5-54.1 4.4.7 4.2.1 4.1-.5 3.9-.9 3.9-1.6 3.8-2.1 3.9-2.8 3.8-3.5 3.8-4.3 3.4-4.5 3.3-5.2 3.2-6 3.1-6.7 3-7.7 2.8-8.6 2.7-9.6 2.6-10.8 2.1-10.9 1.4-10 .9-9.1.4-8.2-.1-7.5-.5-6.7-.9-6.1-1.2-5.6-1.8-5.4-2-4.7-2.4-4.1-2.6-3.6-2.9-3-3.3-2.5-3.5-2-3.9-1.7-4.3-1.2-4.4-.6-4.2-.1-4.1.5-3.9 1-3.9 1.5-3.9 2.2-3.8 2.8-3.8 3.5-3.8 4.3-3.4 4.6-3.3 5.3-3.3 5.9-3.1 6.8-3 7.7-2.8 8.6-2.7 9.6-2.5 10.8-2.1 10.8-1.5 9.9-.9 9.1-.3 8.1.1 7.5.5 6.7.9 6.1 1.2 5.5 1.8 5.5 2 4.7 2.4 4.1 2.6 3.5 2.9 3 3.2 2.6 3.6 2 3.9 1.7 4.3 1.1Zm144.7 228.4 29.8 17.1-28.6 49.5-29.8-17.2-25.6 44.4-53.7-31 25.7-44.3-105.9-61.1 18.8-32.6 180.8-116.9 74.6 43-86.1 149.1Zm-3.5-117.9-93.4 61.9 43.2 25 50.2-86.9Z" fill="#5478eb" stroke="#2d4fde" stroke-width="11.74"/><g stroke="#000" stroke-width="3.261"><path d="M417.2 406 281.4 556.4l-85.9-58.5-42.7-139 4.3-4.3 3.3-4 2.4-3.8 1.7-3.5 1.1-3.4.4-3.1v-5l-.7-7.7-1.8-11.1-3.2-15.6-.5-10-.7-7.3-.8-5-1.9-5.5-2.4-3.9-4.8-5.6-5-3.9-5.4-2.5-2.4-.7-4.8-.8-1.2.3-.8.8-.8 2.8.3 5.5.9 4 2.4 8.3 6.1 15.9-7.6 1.1-3.5.2-7.8-.4-3.8-.9-1.7-.7-11.8-6-5.6-1.5-3.9.3-1.8.7-1.5 1.3-1.4 2-.9 2-.2 2.1.4 2.2 1 2.4 1.8 2.6 2.9 3 4.2 3.3 5.8 3.7 7.8 4.2-5.8-1.5-4.6-.7-3.5-.2-2.8.4-2.1.6-1.6 1-1.1 1.3-.9 1.6-.4 2v2.1l.6 2 1.2 1.8 3.4 3 5.7 3.1 3.5 1.4 8.4 2.3-6.2.4-5.3.7-2.5.7L94 335l-.8 1.8.3 1.3.9 1.4 1.7 1.8 3.1 2.2 4.7 2.7 7 3.2-6.6-1.2-4.2-.5-2.4.1-1.4.4-.6.5-.2.7.3 1.2 2.5 3.2 6.1 5.1-.5 62.8.2 26.3.7 26.3 1.3 24.1.9 10.9 1.1 8.9 1.8 10.1 1 3.3 2.6 6.4 4.6 9.2 7.2 12.7 10.4 17.2 14.7 22.4 19.5 28.9 25.6 36.4v176.6h287.8L466 691.5l30.5-2.6 19.2-1.2 11.1-.3 28.5.1 22.9-.4 14.7-.6 12.4-.8 10.3-1.1 8-1.2 12.5-3 4.8-1.7 4.8-2.2 4-2.4 3.2-2.7 2.6-2.8 4.8-6.6 5.6-8.8 6.6-11.4 7.7-14.6 8.9-18.2 10.3-22.4 11.9-27.2 13.6-32.6 4.7-5.1 3.8-4.8 2.9-4.4 2.1-4 1.5-3.8.9-3.5.4-3.3-.2-3.5-2-8.9-3.4-9.9-4.3-9.5-4.2-7.4-3.1-3.6-1.5-.5-.8.7-.7 1.4-.7 2.8-.3 4.8v7.6l.8 11.5-1.9-10.5-1.7-6.8-1.4-4.1-1.2-2.2-1-1-.9-.3-.9.3-.8.9-1 2-.9 3.7-.8 6.1-.7 9.5-.9-7.9-1.1-5.7-1.2-3.8-1.2-2.5-1.2-1.5-1.2-.8-1.3-.3-1.2.3-1.2.8-1.1 1.4-1 2.5-.9 3.9-.7 5.6-.4 8-.4-7.8-.9-5.6-1-3.9-1.3-2.5-1.3-1.6-1.4-.8-1.5-.3-1.3.2-1.1.7-1 1.3-.8 2.1-.7 3.1-.4 4.6.1 6.5.7 8.8-2.7 2.1-2.3 1.3-2 .6-1.7.1-1.6-.5-11.5-8.5-6.4-3.8-3.1-1.4-2.5-.7-1.6-.1-1.2.4-.9.8-.7 1.5-.2 1.7.5 2.1 1.5 3.2 2.4 3.8 9.4 12.8 5.7 8.8 1.6 3 .4 3.7-.7 6.4-.6 1.4-1.3 2.1-2.7 3.2-26.6 26.6-12.5 13.4-24.4 27.5-183.1-19 6.7-5.4 5.9-5.5 5.2-5.5 4.6-5.7 4-5.8 3.4-5.9 2.9-6 2.3-6.2 1.8-6.3 1.4-6.5.8-6.8.2-6.9-.3-7.9-.8-8.2-1.5-8.6-2.1-9.1-2.8-9.6-3.5-10.1-4.4-10.6-5.2-11.3-6.2-11.8-7.1-12.6Z" fill="#fff" fill-rule="evenodd"/><path d="m207.3 506.9-69.9 71.3" fill="none"/><path d="m244 546.8-6.9 36.4-5.8 27.8-4.9 20.7-4 15-3.2 10.3-3.3 8.6-3.4 7.3-3.3 6.1-3.4 5-3.4 4.1-3.5 3.4-3.4 2.6v150.5h289.6L466 691.5l-31.8-30.6v-95.1h-31.6V657L253 649.8l15.3-103H244Z" fill="#fff" fill-rule="evenodd"/><path d="M495.7 587.1v101.8" fill="none"/></g><path d="m414.1 474.9 2-10.8 2-8.4 1.9-6.6 1.9-4.9 1.7-3.6 2.3-3.5 3-3.9 3.9-4.3 5-4.9 6.1-5.3 2.3-2.6 1.6-2.7 1.1-2.7.5-2.8.1-3-.4-3.1-1.1-3.4-1.4-3.2-1.8-2.7-2.2-2.2-2.5-1.9-2.9-1.6-3.3-1.2-3.9-.8-7.5-6.7-7.5-5.8-7.4-5.2-7.3-4.5-7.3-3.8-7.2-3.2-7.1-2.6-7.2-2-7.1-1.5-7.2-.9-7.2-.4-7.3.1-7.3.7-6.9 1.2-6.4 1.8-5.9 2.2-5.7 2.7-5.2 2.9-4.8 3.3-4.5 3.6-7.7 7.4-5.1 5.9-4.1 5.6-3.6 5.5-4.9 9.1-2.5 5.8-8.4 4.7-7.6 6.1-4.9 5.3-2.3 3.2-2 3.4-1.7 3.7-1.3 4.1-1 5.3-.5 5 .2 4.9.7 4.8 1.2 4.7 1.9 4.6 2.5 4.5 3.1 4.6-5.9 5.5-5.1 5.4-4.3 5.5-3.6 5.5-3 5.4-2.4 5.6-1.8 5.6-1.3 5.6-.7 5.8-.2 5.9.4 6.1 1 6.2 1.6 6.5 2.2 6.7 3 7 3.7 7.3 4.5 7.7 4.8 7 4.9 6.2 5.1 5.4 5.2 4.6 5.4 4 5.5 3.4 5.8 2.8 5.9 2.2 6.2 1.6 6.4 1.1 6.7.4 7.1-.1 7.4-.8 7.9-1.4 8.4-2.2 8.8-3 9.4-3.8 7.4 3.2 7 2.5 6.8 1.8 6.4 1.1 6.2.6h6l5.9-.6 5.6-1.1 5.5-1.6 5.5-2.3 5.3-2.8 5.3-3.4 5.2-4 5.2-4.8 5.2-5.6 3.3-4.1 2.6-3.9 3.8-7.3 1.6-5.1 1-4.8.3-4.7-.2-4.6-.7-4.4-1.2-4.2-3.3-8-5.6-8.9-3.7-4.5-7.2-7.4-16.9-13.7-8.4-7.6-4.3-4.3-4.1-4.6-3.6-4.7-2.8-4.4-1.4-3.1-.8-2.8-.2-2.5.3-1.8.6-1.7 1.1-1.6 1.6-1.5 3.2-2 2.9-1.3 2.6-.7 2.4-.1 2.3.4 2.3.9 2.2 1.4 2.2 2.2 2.2 2.8 2.2 3.9 2.3 5Z" fill="#32323b" fill-rule="evenodd" stroke="#000" stroke-width="3.261"/><path d="m622.9 248.9 1.4-4.2 1.4-3.1 1.5-2.2 1.4-1.5 1.4-.9 1.5-.3 3.8 1 6.2 3.6 4.3 3.3 1-5.5.7-2.2 2.2-4.2 1.6-1.6 1.5-.7 1.6-.3 1.9.1 2.2.8 2.6 1.4 3.1 2.4m172.7 203.4 1.2 3.6.3 2.8-.6 4.3-.9 2.6-2.2 2.9-6.8 5.4.8 10-.8 6.4-2.6 6-5.6 8.3m33.8-52.3 2.9 4.6 1.4 2.8.3 1.7-.4 2.8-.8 2.1-1.1 1.9-2.3 2.3 3.2 4.8.9 2.3.9 4.2-.4 3.4M699.4 773.7l4.7.4 3.5.6 2.5.8 1.8 1 1.2 1.2.8 1.4.5 1.9.1 2.5-.4 3.3-1 4.3h19.7" fill="none" stroke="#000" stroke-linecap="round" stroke-width="3.261"/><path d="M71.7 841.4h587.1v6.5H71.7Z" fill-rule="evenodd"/></svg>